<svg id="Layer_1" data-name="Layer 1" xmlns="http://www.w3.org/2000/svg" viewBox="0 0 15.84 9.04"><title>favicon</title><path d="M5.79,10.48H2.57L2,12.32H0L3.32,3.4H5l3.34,8.92H6.41ZM3.06,9H5.29L4.17,5.65Z" transform="translate(0 -3.4)" fill="#ef3734"/><path d="M15.84,3.4V9.27a3,3,0,0,1-.92,2.32,3.51,3.51,0,0,1-2.5.85,3.57,3.57,0,0,1-2.48-.83A3,3,0,0,1,9,9.34V3.4h1.84V9.29a1.67,1.67,0,0,0,.42,1.27,1.6,1.6,0,0,0,1.16.4c1,0,1.56-.54,1.58-1.63V3.4Z" transform="translate(0 -3.4)" fill="#ef3734"/></svg>